<svg xmlns="http://www.w3.org/2000/svg" xmlns:xlink="http://www.w3.org/1999/xlink" aria-hidden="true" role="img" class="iconify iconify--logos" width="31.88" height="32" preserveAspectRatio="xMidYMid meet" viewBox="0 0 256 257"><defs><linearGradient id="IconifyId1813088fe1fbc01" x1="-9.135%" x2="89.486%" y1="12.813%" y2="94.135%"><stop offset="0%" stop-color="#41D1FF"></stop><stop offset="100%" stop-color="#BD34FE"></stop></linearGradient><linearGradient id="IconifyId1813088fe1fbc02" x1="16.924%" x2="82.479%" y1="12.813%" y2="94.135%"><stop offset="0%" stop-color="#FFEA83"></stop><stop offset="8.333%" stop-color="#FFDD35"></stop><stop offset="100%" stop-color="#FFA800"></stop></linearGradient></defs><path fill="url(#IconifyId1813088fe1fbc01)" d="M255.153 37.937L134.897 252.976c-2.483 4.44-8.862 4.466-11.382.048L.875 37.958c-2.746-4.814 1.371-10.646 6.827-9.67l120.385 21.517a10.74 10.74 0 0 0 3.804 0l116.435-21.511c5.457-.974 9.574 4.859 6.827 9.643Z"></path><path fill="url(#IconifyId1813088fe1fbc02)" d="M185.432.063L96.44 37.94l11.13 65.474a10.74 10.74 0 0 0 16.331 7.22l80.084-52.417c4.805-3.144 3.794-10.6-.015-12.44L185.432.063Z"></path></svg>
